Coordinates
version=1
nRows=6
nColumns=63
inDegrees=yes

Units are S.I. units (second, meters, Newtons, ...)
If the header above contains a line with 'inDegrees', this indicates whether rotational values are in degrees (yes) or radians (no).

endheader
time	pelvis_tilt	pelvis_list	pelvis_rotation	pelvis_tx	pelvis_ty	pelvis_tz	hip_flexion_r	hip_adduction_r	hip_rotation_r	knee_angle_r	knee_angle_r_beta	ankle_angle_r	subtalar_angle_r	mtp_angle_r	hip_flexion_l	hip_adduction_l	hip_rotation_l	knee_angle_l	knee_angle_l_beta	ankle_angle_l	subtalar_angle_l	mtp_angle_l	L5_S1_Flex_Ext	L5_S1_Lat_Bending	L5_S1_axial_rotation	L4_L5_Flex_Ext	L4_L5_Lat_Bending	L4_L5_axial_rotation	L3_L4_Flex_Ext	L3_L4_Lat_Bending	L3_L4_axial_rotation	L2_L3_Flex_Ext	L2_L3_Lat_Bending	L2_L3_axial_rotation	L1_L2_Flex_Ext	L1_L2_Lat_Bending	L1_L2_axial_rotation	L1_T12_Flex_Ext	L1_T12_Lat_Bending	L1_T12_axial_rotation	Abs_r3	Abs_r2	Abs_r1	Abs_t1	Abs_t2	neck_flexion	neck_bending	neck_rotation	arm_flex_r	arm_add_r	arm_rot_r	elbow_flex_r	pro_sup_r	wrist_flex_r	wrist_dev_r	arm_flex_l	arm_add_l	arm_rot_l	elbow_flex_l	pro_sup_l	wrist_flex_l	wrist_dev_l
      4.18644068	     -1.82592899	     -1.86237369	     70.59472897	      0.20321897	      0.91533346	      0.55794216	      4.29509643	      3.77417306	     10.81779981	      5.74626736	      0.10029129	     25.23420936	    -14.32500356	      0.00000000	      6.33809573	     -4.63444486	     -2.08458725	     11.46353251	      0.20007639	     37.21579356	      5.65879118	      0.00000000	      0.07548069	      0.48212563	     -2.59661591	      0.14017518	      0.64122709	     -2.75890441	      0.12400722	      1.17224027	     -2.75890441	      0.08626688	      1.17224027	     -2.27203892	      0.07009137	      0.98315059	     -2.10975043	      0.04312966	      0.74681261	     -1.94746193	      0.53915100	      5.45390160	    -14.44159872	      0.00000000	      0.00000000	     26.81266890	     11.07402415	    -11.37071625	    114.25213186	    -75.14494471	     20.86147639	    135.81038440	     21.55245510	      7.16002888	      4.87367968	      1.32871745	    -15.19732427	    -81.88770593	    137.77180332	     53.49686855	     20.00123975	     15.08475971
      4.20338983	     -1.94469680	     -2.09721035	     70.15591166	      0.20338927	      0.91521402	      0.55824437	      4.47500253	      3.74471851	     11.45453620	      5.45902054	      0.09527788	     24.89603698	    -14.57006511	      0.00000000	      6.66651862	     -4.61922088	     -2.42338488	     11.69394209	      0.20409779	     37.30897775	      5.38629092	      0.00000000	      0.08346769	      0.49021673	     -2.35411476	      0.15500785	      0.65198825	     -2.50124693	      0.13712907	      1.19191296	     -2.50124693	      0.09539522	      1.19191296	     -2.05985041	      0.07750810	      0.99964996	     -1.91271824	      0.04769344	      0.75934572	     -1.76558607	      0.59620137	      5.54542971	    -13.09288005	      0.00000000	      0.00000000	     26.71864165	      8.68065650	    -12.00854079	    113.59947493	    -78.14950183	     18.44051983	    136.88161800	     20.35659475	      7.51285576	      5.49657620	      2.15611688	    -14.83099157	    -81.05775239	    137.69316497	     54.09009217	     20.57511604	     15.26200221
      4.22033898	     -2.17243863	     -2.25709914	     69.81034499	      0.20376169	      0.91501891	      0.55841046	      4.59606257	      3.60088870	     12.34271560	      5.15149815	      0.08991060	     24.59925266	    -15.28666157	      0.00000000	      6.81358568	     -4.47275989	     -2.73808903	     11.59501780	      0.20237124	     37.29001955	      5.32077689	      0.00000000	      0.09382160	      0.47130384	     -2.11713484	      0.17423610	      0.62683411	     -2.24945577	      0.15413951	      1.14592816	     -2.24945577	      0.10722871	      1.14592816	     -1.85249298	      0.08712274	      0.96108280	     -1.72017206	      0.05360966	      0.73004965	     -1.58785113	      0.67015834	      5.33148333	    -11.77486883	      0.00000000	      0.00000000	     27.13472192	      6.75699049	    -13.30172710	    111.65312743	    -81.06463458	     14.18997457	    138.08186265	     18.51760974	      7.66800015	      7.98585261	      2.88720261	    -14.65913751	    -80.05463139	    137.56669401	     54.77834829	     21.22829100	     14.75043016
      4.23728814	     -2.55712460	     -2.23794124	     69.71791175	      0.20496830	      0.91522539	      0.55911704	      4.58282857	      3.29506501	     12.87750937	      4.80723508	      0.08390208	     24.45309401	    -15.77989695	      0.00000000	      6.96248551	     -4.21641685	     -3.28892344	     11.61620054	      0.20274095	     37.23546924	      5.96434341	      0.00000000	      0.10569441	      0.38612117	     -2.15064643	      0.19628509	      0.51354115	     -2.28506183	      0.17364534	      0.93881500	     -2.28506183	      0.12079814	      0.93881500	     -1.88181562	      0.09814783	      0.78737828	     -1.74740022	      0.06039379	      0.59810169	     -1.61298482	      0.75496459	      4.36787986	    -11.96125023	      0.00000000	      0.00000000	     27.34054749	      6.91002744	    -13.83169640	     91.88164085	    -81.31224650	     -7.24917595	    139.56148852	     19.06830368	      8.09194517	     10.16298790	      2.56831564	    -15.07295207	    -80.57737978	    137.77056340	     55.84075569	     21.08868769	     13.17403019
      4.25423729	     -2.47909523	     -2.47581920	     69.27035854	      0.20450480	      0.91467280	      0.55890879	      4.73141947	      3.41549029	     13.26041650	      4.61762271	      0.08059272	     24.53596603	    -15.65953664	      0.00000000	      7.07638192	     -4.33479748	     -3.58466365	     11.48691939	      0.20048456	     37.46499449	      5.91434224	      0.00000000	      0.13642594	      0.43784322	     -2.00934705	      0.25335662	      0.58233149	     -2.13493125	      0.22413418	      1.06457201	     -2.13493125	      0.15592121	      1.06457201	     -1.75817867	      0.12668513	      0.89284990	     -1.63259448	      0.07795378	      0.67821915	     -1.50701029	      0.97447686	      4.95297010	    -11.17538551	      0.00000000	      0.00000000	     27.64103986	      5.26030515	    -13.23744720	     87.50563563	    -81.90856458	    -14.02015293	    139.89910699	     24.12326166	      9.58024948	     10.85979001	      2.72161708	    -14.45398846	    -80.11182959	    137.12484201	     54.39343669	     22.70663457	     12.30940955
      4.27118644	     -2.96733612	     -2.48035819	     69.14673024	      0.20644538	      0.91475502	      0.55962615	      4.80372845	      3.05766146	     13.48209530	      4.33425342	      0.07564699	     24.66583376	    -15.60603945	      0.00000000	      7.19108524	     -4.03790446	     -4.25148108	     11.30619708	      0.19733036	     37.24587594	      6.86396399	      0.00000000	      0.18441309	      0.31637813	     -1.93001728	      0.34247355	      0.42078291	     -2.05064336	      0.30297227	      0.76924178	     -2.05064336	      0.21076572	      0.76924178	     -1.68876512	      0.17124600	      0.64515828	     -1.56813904	      0.10537364	      0.49006972	     -1.44751296	      1.31724426	      3.57893265	    -10.73417712	      0.00000000	      0.00000000	     27.84449307	      5.84796124	    -15.36681326	     57.28271511	    -81.39566294	    -45.87925491	    141.41574726	     29.14488136	     10.41412559	      8.60867186	      2.79052870	    -15.11361451	    -79.24386985	    137.32042649	     54.87201205	     21.82808741	     11.57414719
